<?xml version="1.0" standalone="no"?>
<!DOCTYPE svg PUBLIC "-//W3C//DTD SVG 20010904//EN"
 "http://www.w3.org/TR/2001/REC-SVG-20010904/DTD/svg10.dtd">
<svg version="1.0" xmlns="http://www.w3.org/2000/svg"
 width="920.000000pt" height="920.000000pt" viewBox="0 0 920.000000 920.000000"
 preserveAspectRatio="xMidYMid meet">
<metadata>
Created by potrace 1.14, written by Peter Selinger 2001-2017
</metadata>
<g transform="translate(0.000000,920.000000) scale(0.100000,-0.100000)"
fill="#000000" stroke="none">
<path d="M4020 9184 c-66 -7 -195 -35 -275 -61 -88 -28 -305 -130 -305 -144 0
-5 -6 -9 -12 -9 -33 -1 -226 -170 -313 -275 -44 -52 -127 -187 -161 -262 -17
-37 -24 -70 -24 -115 0 -74 -6 -84 -80 -131 -110 -69 -231 -214 -295 -352 -67
-144 -131 -392 -150 -580 -4 -33 -8 -71 -11 -85 -8 -49 -5 -397 5 -460 5 -36
12 -83 16 -105 15 -105 92 -363 116 -389 20 -22 7 -42 -39 -60 -55 -23 -62
-28 -118 -83 -53 -52 -92 -117 -110 -185 -20 -75 -19 -624 1 -692 23 -75 65
-145 118 -192 47 -42 141 -94 170 -94 10 0 16 -21 21 -82 8 -92 35 -232 66
-342 109 -375 365 -749 651 -952 30 -21 56 -41 59 -44 8 -9 121 -74 161 -92
19 -10 65 -30 101 -47 l66 -29 4 -84 c2 -46 2 -120 0 -165 -2 -71 -5 -83 -22
-88 -23 -7 -174 -153 -212 -203 -24 -32 -27 -33 -124 -42 -577 -54 -1081 -288
-1500 -696 -376 -367 -619 -838 -705 -1364 -16 -96 -22 -190 -26 -402 l-5
-278 3412 0 3413 0 -6 283 c-6 347 -27 487 -110 752 -192 609 -618 1121 -1188
1429 -168 90 -419 184 -606 225 -98 22 -268 47 -386 56 -75 7 -78 8 -105 43
-28 38 -105 117 -160 165 l-32 27 0 166 0 165 38 16 c225 93 351 178 542 365
254 249 444 627 509 1008 16 97 19 121 20 168 1 30 5 42 16 42 29 0 127 54
173 95 26 24 60 66 75 93 55 101 57 120 54 467 l-2 320 -34 70 c-55 111 -142
185 -266 225 -36 12 -38 14 -18 23 52 23 153 283 188 487 24 136 30 223 30
410 0 257 -17 380 -80 565 -65 192 -182 390 -293 499 l-40 38 43 54 c140 171
173 484 74 689 -107 218 -316 296 -564 210 -44 -15 -89 -34 -100 -41 -39 -25
-223 -82 -300 -94 -186 -28 -269 -17 -685 89 -107 27 -233 56 -280 64 -77 14
-311 20 -400 11z"/>
</g>
</svg>
